# xmcd CD database file
#
# Track frame offsets:
#	150
#	15671
#	32588
#	49903
#	63441
#	76971
#	90171
#	106378
#	119755
#	131377
#	149850
#	165482
#	181045
#	195737
#
# Disc length: 2875 seconds
#
# Revision: 0
# Processed by: cddbd v1.5.2PL0 Copyright (c) Steve Scherf et al.
# Submitted via: CDex 1.51
#
DISCID=b80b390e
DTITLE=Steve Farlow - The Glory of True Love
DYEAR=2013
DGENRE=Country
TTITLE0=The Glory of True Love
TTITLE1=Gene Autry, My Hero
TTITLE2=China Doll
TTITLE3=Sonny's Dream
TTITLE4=Holding Things Together
TTITLE5=Angelene
TTITLE6=Union Mare
TTITLE7=You Can't Break A Broken Heart
TTITLE8=Belle of Liverpool
TTITLE9=Heaven Won't Be Heaven
TTITLE10=Carmen
TTITLE11=God's Plan
TTITLE12=Locklin's Bar
TTITLE13=Endless Love
EXTD=YEAR: 2013
EXTT0=
EXTT1=
EXTT2=
EXTT3=
EXTT4=
EXTT5=
EXTT6=
EXTT7=
EXTT8=
EXTT9=
EXTT10=
EXTT11=
EXTT12=
EXTT13=
PLAYORDER=
